<svg width="451.363" height="122" xmlns="http://www.w3.org/2000/svg" viewBox="24.319 14 451.363 122" style="background:0 0" preserveAspectRatio="xMidYMid"><defs><linearGradient id="editing-gradient-gradient" x1="0" x2="1" y1=".5" y2=".5" gradientUnits="objectBoundingBox"><stop offset="0" stop-color="#18ff00"/><stop offset="1" stop-color="#087827"/></linearGradient></defs><path d="M14.21 0H.51l7.81-42.05q6.34-.7 15.58-.7 9.25 0 13.54 2.69 4.29 2.68 4.29 8.09t-2.79 8.8q-2.78 3.39-7.58 4.48 1.09 5.31 3.58 9.6 2.31 4.03 5 5.31-.96 2.69-2.92 3.88-1.95 1.18-4.73 1.18-2.79 0-4.96-1.63-2.18-1.63-3.91-4.64-3.64-6.53-4.03-16.83h.45q4.74-.13 7.1-2.6 2.37-2.46 2.37-7.64 0-6.47-5.44-6.72h-1.41q-.57 0-.89.06L14.21 0Zm56.77-1.09q-5.7 2.37-12.68 2.37-6.14 0-10.3-3.2-4.54-3.39-4.54-9.41 0-8.89 10.68-11.39-1.79-5.06-1.79-8.58 0-3.52 1.35-5.79 1.34-2.27 3.64-3.74 4.36-2.69 11.65-2.69 5.06 0 8.26 1.92 3.26 1.98 3.26 4.93 0 3.33-2.3 5.18-2.05 1.73-5.44 1.73-1.99 0-2.63-.19.26-1.41.26-3.71 0-2.31-.77-3.88-.77-1.56-2.05-1.56-2.36 0-3.26 2.08-.9 2.08-.9 5.12t.61 5.82q.61 2.78 1.76 5.47 2.43 5.57 6.34 9.35 1.02-2.5 1.15-6.4 0-3.46-2.37-5.51.9-.83 2.63-1.34 1.72-.51 3.26-.51 3.39 0 4.99 2.04 1.6 2.05 1.6 5.32 0 5.82-4.16 10.62 1.6.45 3.07.45 3.2 0 4.23-.83.51 1.21.51 2.81 0 3.2-2.08 4.55-2.08 1.34-5.79 1.34t-8.19-2.37ZM56.32-17.86q-1.41 1.41-1.41 3.91 0 2.49.58 4.06.57 1.57 1.47 2.72 2.05 2.5 4.74 2.5 2.43 0 3.84-.51-5.38-5.06-9.22-12.68ZM96.58 0h-7.36l11.58-42.24h13.38l2.94 24.13 11.9-24.13h11.2l1.16 31.62q.25 6.27 3.32 8.19-.7 1.28-2.75 2.49-2.05 1.22-4.77 1.22-2.72 0-4.32-.77t-2.49-2.05q-1.6-2.3-1.6-6.72v-19.77L116.16 0h-7.94l-4.48-28.74L96.58 0ZM152-26.75q2.18-3.07 5.47-5.12 3.3-2.05 7.33-2.05t5.95 1.28l12.55-1.28-4.36 24.58Q176.7 3.2 171.97 8.13q-4.55 4.67-13.38 4.67-6.72 0-10.56-2.11-3.84-2.11-3.84-5.63 0-2.63 1.99-4.13 1.98-1.51 5.05-1.51 2.69 0 4.74 1.22 1.21.64 1.79 1.54-1.47 1.28-1.47 3.39 0 2.75 2.56 2.75 4.29 0 6.72-10.11.7-2.75 1.28-5.51-2.88 3.52-9.41 3.52-4.54 0-7.17-2.17-2.62-2.18-2.62-7.3 0-3.2 1.09-6.81 1.08-3.62 3.26-6.69Zm8.32 13.69q0 4.36 2.24 4.36 1.54 0 3.01-1.67 1.15-1.34 1.6-3.33l3.26-16.44q-.32-.07-.64-.2-.64-.25-1.47-.25-3.9 0-6.21 6.4-1.79 4.99-1.79 11.13Zm45.5-4.92q2.31-4.1 2.31-8.26 0-2.75-1.99-2.75-1.53 0-3.13 2.62-1.67 2.63-2.18 6.02L197.5 0l-13.24 1.28 6.52-33.92 10.56-1.28-1.15 6.46q3.14-6.46 10.18-6.46 3.71 0 5.73 1.92 2.01 1.92 2.01 5.86 0 3.93-2.59 6.43-2.59 2.49-7.01 2.49-1.92 0-2.69-.76Zm16.1 16.06q-1.5-1.66-2.18-4.29-.67-2.62-.67-6.91t1.47-8.19q1.48-3.91 4.16-6.72 5.51-5.89 14.6-5.89 3.26 0 5.63 1.09l10.94-1.09-4.73 24.96q-.2.77-.2 2.18 0 1.4.87 2.3.86.9 2.14 1.02-.64 2.18-2.97 3.46-2.34 1.28-4.96 1.28-2.63 0-4.39-.99-1.76-.99-2.27-2.66-1.02 1.6-3.2 2.63-2.18 1.02-5.09 1.02-2.91 0-5.28-.77t-3.87-2.43Zm13.5-25.98q-.73 1.15-1.37 3.1-.64 1.95-1.7 7.17-1.05 5.21-1.05 8.93 0 3.71.57 4.8.58 1.08 1.6 1.08 2.05 0 3.55-1.95 1.51-1.95 2.08-5.41l3.4-18.75q-1.35-1.15-2.92-1.15-1.56 0-2.49.51-.93.51-1.67 1.67Zm69.99 29.18q-7.75 0-7.75-6.02 0-2.62 1.12-7.71t1.51-7.13q.89-4.68.89-6.15 0-3.26-2.43-3.26-1.6 0-3.13 2.21-1.54 2.2-2.24 6.62L289.41 0l-12.48 1.28 3.45-17.41q.58-2.88 1.09-6.14.51-3.27.51-3.78 0-2.94-2.17-2.94-1.47 0-3.07 2.17-1.6 2.18-2.5 6.66L270.34 0l-12.61 1.28 6.72-33.92 10.43-1.28-1.09 6.46q1.67-3.45 4.74-4.96 3.07-1.5 7.87-1.5 2.75 0 4.54 1.34 1.8 1.35 2.37 3.52 1.09-2.24 3.87-3.55 2.79-1.31 6.21-1.31 3.43 0 5.12.74 1.7.73 2.72 1.95 1.73 2.24 1.73 6.33 0 4.04-1.73 12.42-.89 4.1-.89 5.6t.86 2.4q.86.9 2.14 1.02-.64 2.18-2.84 3.46-2.21 1.28-5.09 1.28Z" fill="url(#editing-gradient-gradient)" transform="translate(93.075 103.16)"/><style></style></svg>